<svg xmlns="http://www.w3.org/2000/svg" version="1.1" xmlns:xlink="http://www.w3.org/1999/xlink" xmlns:svgjs="http://svgjs.dev/svgjs" width="128" height="128" viewBox="0 0 128 128"><g transform="matrix(0.44782608695652176,0,0,0.44782608695652176,35.33913043478261,12.5)"><svg viewBox="0 0 125 225" data-background-color="#ffffff" preserveAspectRatio="xMidYMid meet" height="230" width="128" xmlns="http://www.w3.org/2000/svg" xmlns:xlink="http://www.w3.org/1999/xlink"><g id="tight-bounds" transform="matrix(1,0,0,1,0,0)"><svg viewBox="0 0 125 225" height="225" width="125"><g><svg></svg></g><g><svg viewBox="0 0 125 225" height="225" width="125"><g><path d="M8.188 130.945l1.455 1.82-0.727-2.366c-0.182-1.092-1.456 0.182-0.728 0.546M9.825 129.854c0.546 0.91 1.092 1.82 1.092 2.729 0 1.274 1.092 1.82 2.001 2.183-1.274-1.456-2.001-5.459-3.093-4.912M79.694 52.707c3.093 0 6.004-0.364 9.28 0.363 8.006 2.001 14.738 6.004 19.287 11.645l12.736 20.379c0.546 5.095 1.638 10.735 1.456 16.921 1.274 0 1.092-1.82 2.547-2.183-1.456 3.639-2.183 8.188-2.547 13.464-0.91-2.911 0-7.278 0.182-9.643-1.274 2.001-2.001 0.546-2.002-0.364 0.182-1.456-0.546-1.274-1.092-1.82-2.001-1.82-3.275-3.821-4.73-6.914 0.91-2.365 1.092-5.822-1.82-7.642-0.91-0.546-2.001-1.456-2.547-2.911-0.728-2.001-2.001-4.367-1.638-7.46 0.182-0.91-2.729 2.001-4.366 0.728-7.096-4.913-14.192-10.553-22.744-15.284-4.549 0-7.824-1.638-9.462-3.639-1.456-1.82-0.364-4.185 1.82-4.367 1.274 0 2.729-0.364 3.821 0.364 0.182-0.728 0.91-1.638 1.819-1.637M61.681 48.522l0.364 0.182c1.82 0.364 2.729 2.911 4.731 2.001 0 1.274 0.182 2.547-0.182 3.457-0.546 1.456-2.183 1.456-3.457 1.456-12.191-0.728-19.287 4.367-26.747 8.733-2.001 1.274-4.185 2.183-5.822 3.821-7.824 7.278-16.376 14.01-18.377 27.475l-1.638 14.92c-0.182 1.638-2.001 3.275-1.637 5.276l1.273 8.916c-1.274-1.274-2.001 0.364-1.637 1.092 0.182 0.546 0.91 2.365 2.001 0.727 1.456 2.729 2.911 8.006 4.913 10.372 6.186 7.278 14.192 13.828 20.742 20.378 1.638-0.364 2.911-0.364 3.275-1.456 0.546 1.092-0.546 2.183-1.455 2.366 2.911 1.82 6.186 3.457 10.553 3.821 5.64 0.364 10.917 1.274 15.829 2.547 2.547-0.728 5.095-1.092 7.824-1.274 0.91 0 1.456-1.456 2.548-1.819l0.182-1.82c1.092 1.638 0.91-0.546 0.182-1.637 1.274 1.092 1.638 2.001 2.183 2.729 0-0.546 1.456-2.547 1.456-0.182l0.363-2.365c0.546-0.364 0.728 2.001 1.274 0.364 0.546-1.638 1.638-0.364 2.729-0.91-0.364 0.728-0.182 2.183 1.092 1.274l1.456-1.274c0.91 2.183 2.365 1.274 3.093 0.91 8.006-5.095 16.012-11.099 23.653-17.104l-0.182 2.366 0.91-2.911c0.91 0.91 1.638 0.182 2.002-0.364 1.092-1.82 2.547-3.639 4.912-5.277-2.911 7.824-6.368 14.01-10.735 19.105l-1.819 2.183c0 1.274-0.364 2.911-1.82 3.093-0.728 0.182-2.183-0.364-3.275 0.728-0.546 0.728 1.274 2.183-0.182 1.092-1.274-0.91-2.547 0-4.003 0.364-1.092 0.364 0.728 1.456 1.092 2.183 0.364 0.728 0.728 1.456 0.546 2.366l-2.002-2.184c-2.365 1.274-3.821 3.639-5.822 5.459-0.91 0.728-0.546 2.001-0.546 3.093-1.274 0-2.729-0.364-3.457 0.364-0.546 0.728-0.364 1.82-0.364 2.911-1.82-0.182-2.001-2.911-3.639-2.365-1.638 0.364-3.457 0.546-4.913 1.455 1.092 2.183-1.82 0.91-1.455 1.274-2.729-1.638-5.095-2.911-8.006-1.82-6.186-2.001-13.828-1.092-19.469-0.364 0-0.91 0.182-1.82-0.182-2.001-0.364 0.91-1.456 0.546-1.273 0.546-3.457-2.365-6.914-3.821-10.553-5.823-3.275 0.364-6.368-1.274-7.278-2.183-2.547-2.365-5.459-1.092-7.824-1.638-5.095-1.274-6.914-6.55-7.46-10.189-0.364-1.82-1.82-2.547-2.366-2.365-2.365-7.642-6.004-14.556-8.915-21.652-0.728-1.82-0.546-3.639-0.546-5.641 0.91 0.364 1.82 0.182 1.638-1.091-0.91-6.004-3.093-10.553-5.459-14.92 1.274-6.186 1.456-13.464 4.367-18.923 2.547-4.913 7.278-7.46 10.553-11.645 1.092-1.456 1.092-3.457 2.183-4.731 3.639-3.639 7.278-7.46 11.281-10.735 1.82-1.456 4.003 0 6.732-0.546 0.91-3.275 4.549-6.186 8.006-5.276 1.456 0.364 4.367-3.457 5.277-3.821 1.456-0.546 0.728 1.456 0.728 2.729 3.457-2.729 8.188-4.185 12.554-5.822" fill="#0063db" fill-rule="nonzero" stroke="none" stroke-width="1" stroke-linecap="butt" stroke-linejoin="miter" stroke-miterlimit="10" stroke-dasharray="" stroke-dashoffset="0" font-family="none" font-weight="none" font-size="none" text-anchor="none" style="mix-blend-mode: normal" data-fill-palette-color="tertiary"></path></g><g transform="matrix(1,0,0,1,39.325,103.6683218783281)"><svg viewBox="0 0 46.35 17.663356243343806" height="17.663356243343806" width="46.35"><g><svg viewBox="0 0 46.35 17.663356243343806" height="17.663356243343806" width="46.35"><g><svg viewBox="0 0 46.35 17.663356243343806" height="17.663356243343806" width="46.35"><g><svg viewBox="0 0 46.35 17.663356243343806" height="17.663356243343806" width="46.35"><g><svg viewBox="0 0 46.35 17.663356243343806" height="17.663356243343806" width="46.35"><g transform="matrix(1,0,0,1,0,0)"><svg width="46.35" viewBox="4.499999999999999 -36.19939019235199 95.25 36.19939019235199" height="17.663356243343806" data-palette-color="#0063db"><path d="M28.5-0.2L28.5-0.2Q21.75-0.1 7.25-0.35L7.25-0.35Q6.25-0.35 5.53-1.1 4.8-1.85 4.8-2.85L4.8-2.85Q4.5-3.45 4.5-4.1L4.5-4.1Q4.6-7.5 4.6-13.9 4.6-20.3 4.65-22.6L4.65-22.6Q4.65-23.45 4.6-25.58 4.55-27.7 4.6-29.53 4.65-31.35 4.9-32.95L4.9-32.95Q5-33.65 5.5-34.2 6-34.75 6.7-34.95L6.7-34.95Q7.35-35.55 8.3-35.6L8.3-35.6Q12-35.7 18.88-35.75 25.75-35.8 28.25-35.8L28.25-35.8Q29.3-35.8 30.03-35.08 30.75-34.35 30.75-33.3 30.75-32.25 30.03-31.53 29.3-30.8 28.25-30.8L28.25-30.8Q25.6-30.8 19.33-30.75 13.05-30.7 9.65-30.65L9.65-30.65Q9.5-29.95 9.58-26.83 9.65-23.7 9.65-22.5L9.65-22.5 9.65-20.45Q12.1-20.6 14.88-20.6 17.65-20.6 21.18-20.55 24.7-20.5 26.4-20.5L26.4-20.5Q27.45-20.5 28.18-19.78 28.9-19.05 28.9-18 28.9-16.95 28.18-16.23 27.45-15.5 26.4-15.5L26.4-15.5Q24.65-15.5 21.13-15.55 17.6-15.6 14.85-15.6 12.1-15.6 9.6-15.45L9.6-15.45Q9.6-8.35 9.55-5.3L9.55-5.3Q21.75-5.1 28.4-5.2L28.4-5.2Q29.45-5.2 30.2-4.5 30.95-3.8 30.95-2.75 30.95-1.7 30.25-0.95 29.55-0.2 28.5-0.2L28.5-0.2ZM42.75-2.45L42.75-2.45Q42.75-1.4 42-0.7 41.25 0 40.2 0 39.15 0 38.45-0.75 37.75-1.5 37.75-2.55L37.75-2.55Q37.85-7.15 37.6-17.32 37.35-27.5 37.55-33.4L37.55-33.4Q37.6-34.4 38.35-35.13 39.1-35.85 40.12-35.8 41.15-35.75 41.87-35 42.6-34.25 42.55-33.2L42.55-33.2Q42.4-27.85 42.55-20.55L42.55-20.55Q54.35-20.95 59.85-20.9L59.85-20.9Q59.8-27.7 60.1-33.3L60.1-33.3Q60.15-34.35 60.92-35.02 61.7-35.7 62.75-35.65 63.8-35.6 64.47-34.83 65.15-34.05 65.1-33L65.1-33Q64.85-27.15 64.8-23.05L64.8-23.05Q64.8-18.1 64.92-11.93 65.05-5.75 65.05-2.5L65.05-2.5Q65.05-1.45 64.32-0.73 63.6 0 62.55 0 61.5 0 60.77-0.73 60.05-1.45 60.05-2.5L60.05-2.5Q60.05-4.25 59.9-15.9L59.9-15.9Q54.5-15.95 42.65-15.55L42.65-15.55Q42.85-7.1 42.75-2.45L42.75-2.45ZM74.95-1.5L74.95-1.5Q74.55-0.5 73.57-0.1 72.59 0.3 71.62-0.1 70.65-0.5 70.25-1.48 69.84-2.45 70.25-3.4L70.25-3.4Q71.25-5.85 72.87-10.85 74.5-15.85 75.2-17.6L75.2-17.6Q75.55-18.6 78.05-24.7L78.05-24.7Q80.4-30.7 81.7-34.45L81.7-34.45Q82.05-35.45 82.97-35.93 83.9-36.4 84.9-36.05L84.9-36.05Q85.34-35.9 85.7-35.6L85.7-35.6Q86.7-35.25 87.09-34.25L87.09-34.25 99.55-3.5Q99.95-2.5 99.55-1.53 99.15-0.55 98.17-0.15 97.2 0.25 96.22-0.15 95.25-0.55 94.84-1.5L94.84-1.5 91.09-11.2Q89.05-11.1 88.8-11.1L88.8-11.1Q82.05-10.85 78.2-10.85L78.2-10.85Q75.95-4.25 74.95-1.5L74.95-1.5ZM80.05-15.95L80.05-15.95Q84.25-16 89.05-16.15L89.05-16.15 84.5-27.15 80.05-15.95Z" opacity="1" transform="matrix(1,0,0,1,0,0)" fill="#0063db" class="undefined-text-0" data-fill-palette-color="primary" id="text-0"></path></svg></g></svg></g></svg></g></svg></g><g></g></svg></g></svg></g></svg></g><defs></defs></svg><rect width="125" height="225" fill="none" stroke="none" visibility="hidden"></rect></g></svg></g></svg>